<svg height="682.249" width="827.461" xmlns="http://www.w3.org/2000/svg" xmlns:xlink="http://www.w3.org/1999/xlink"><linearGradient id="b" gradientUnits="objectBoundingBox" x1="-.344" x2="1.221" y1="1.196" y2="-.094"><stop offset="0" stop-color="#ea4d29"/><stop offset="1" stop-color="#e8a195"/></linearGradient><linearGradient id="a" gradientUnits="objectBoundingBox" x1="-.057" x2="1.376" y1=".914" y2="-.1"><stop offset="0" stop-color="#ea4d29"/><stop offset="1" stop-color="#ed8d83"/></linearGradient><linearGradient id="c" gradientUnits="objectBoundingBox" x1="-357.93" x2="-356.956" y1="93.228" y2="93.228"><stop offset="0" stop-color="#6655da"/><stop offset="1" stop-color="#ad4aaa"/></linearGradient><linearGradient id="d" x1=".001" x2="1" xlink:href="#a" y1=".499" y2=".499"/><path d="M729.896 241.254a145.272 145.272 0 0 0-8.869 17.418c-44.21 103.277 15.681 249.895-67.345 249.895l-7.086-4.8-105.563-7.132S383.399 453.477 286.066 384.26a327.37 327.37 0 0 1-14.4-10.789c-95.323-75.435 18.697-152.287 93.716-178.666S458.56-14.081 690.441.869s104.054 132.582 39.455 240.385z" fill="#f9dfde"/><path d="m653.684 508.567-7.086-4.8-105.563-7.133S383.399 453.476 286.066 384.26a275.359 275.359 0 0 1 434.96-125.588c-44.209 103.369 15.68 249.895-67.342 249.895z" fill="#e8816c" opacity=".24"/><ellipse cx="174.423" cy="602.289" fill="#f9dfde" rx="159.007" ry="44.941"/><path d="M824.806 661.31c0 11.567-33.191 20.939-74.063 20.939s-74.063-9.144-74.063-20.939 33.191-20.893 74.063-20.893 74.063 9.326 74.063 20.893z" fill="#f9dfde"/><path d="M388.471 83.7v371.776a11.567 11.567 0 0 1-12.435 11.658l-7.909-.457-21.627-1.371-171.578-10.653-67.937-4.206a13.4 13.4 0 0 1-12.435-13.212V65.457a12.619 12.619 0 0 1 .823-4.572 11.338 11.338 0 0 1 11.612-7.269l269.05 16.641A13.441 13.441 0 0 1 388.471 83.7z" fill="url(#b)" transform="translate(294.335 32.198)"/><path d="M663.284 122.662v371.961a11.612 11.612 0 0 1-12.481 11.7l-269-16.916a13.716 13.716 0 0 1-12.481-13.075V104.421a11.247 11.247 0 0 1 1.825-6.309l11.612-5.212 268.044 16.6a13.4 13.4 0 0 1 12.481 13.162z" fill="#e6e6e6"/><path d="M379.291 101.044v371.732a11.612 11.612 0 0 1-12.435 11.7l-269.05-16.683a13.441 13.441 0 0 1-12.436-13.212V82.8a11.521 11.521 0 0 1 6.13-10.284l1.326-.686h.274l16.367-7.361 11.612-5.212L133.008 54l10.652 6.675-26.927 11.612 250.123 15.5a13.441 13.441 0 0 1 12.435 13.257z" fill="url(#a)" transform="translate(261.546 33.734)"/><path d="m445.073 110.593-2.88 1.28a4.115 4.115 0 0 0-2.423 3.886v54.862a1.372 1.372 0 0 1-2.515.686l-11.425-15.914a1.372 1.372 0 0 0-2.149 0l-13.35 14.63a1.417 1.417 0 0 1-2.377-1.052v-55.132a4.206 4.206 0 0 1 2.377-3.84l2.789-1.326z" opacity=".1"/><path d="M447.861 110.224v.6l-9.829-.6a3.977 3.977 0 0 0-1.692 3.337v54.863a1.28 1.28 0 0 1-2.423.686l-11.429-15.91a1.372 1.372 0 0 0-2.149 0l-13.35 14.858a1.417 1.417 0 0 1-2.332-1.234v-55.226a4.16 4.16 0 0 1 2.377-3.795l6.766-3.2a9.738 9.738 0 0 1 4.572-.869l24.733 1.509a5.075 5.075 0 0 1 4.756 4.981z" fill="#507d82"/><path d="M593.108 147.489v27.888a17.51 17.51 0 0 1-18.927 17.738l-51.021-3.155-23.956 17.053a1.874 1.874 0 0 1-2.88-1.6v-48.234a17.6 17.6 0 0 1 18.973-17.739l74.612 4.572a3.52 3.52 0 0 1 3.199 3.477z" fill="#f8f8ff"/><path d="M523.159 164.951a6.949 6.949 0 0 1-7.5 7.041 8.138 8.138 0 0 1-7.5-7.955 6.949 6.949 0 0 1 7.5-6.995 8 8 0 0 1 7.5 7.909z" fill="#507d82"/><path d="M552.19 166.78a6.949 6.949 0 0 1-7.5 6.995 8.092 8.092 0 0 1-7.45-7.955 6.949 6.949 0 0 1 7.5-6.995 8.046 8.046 0 0 1 7.452 7.955z" fill="#ea4d29"/><path d="M581.221 168.563a6.949 6.949 0 0 1-7.406 6.995 8.046 8.046 0 0 1-7.5-7.909 6.995 6.995 0 0 1 7.5-7.04 8.092 8.092 0 0 1 7.406 7.955z" fill="#ffc507"/><path d="m461.715 283.955.686 5.9-15.453-5.806a1.509 1.509 0 0 0-1.1 0l-35.111 15.361-11.7-10.515-14.264 1.006-1.234 14.95 7.772 4.572 52.027 29.762a1.417 1.417 0 0 0 1.417 0l62.402-31.228a.686.686 0 0 0 .366-.64v-15.591z" fill="#aeb9ff"/><path d="m440.502 324.506-65.1-37.626c-.731-.411-.32-1.463.686-1.92l67.571-29.625a1.783 1.783 0 0 1 1.372 0l74.657 28.025c1.326.457 1.737 1.646.732 2.149l-78.09 39.089a1.966 1.966 0 0 1-1.829-.091z" fill="#f2f2f2"/><path d="M418.374 302.014a3.612 3.612 0 0 1-4.572 2.332s-10.881-3.749-18.287 1.509c-5.806 3.977-8.686 12.07-8.686 24.048v79.092a8.229 8.229 0 0 1 3.886 6.9v20.07a7.178 7.178 0 0 1-7.772 7.223 8.275 8.275 0 0 1-8.184-8v-20.07a7.041 7.041 0 0 1 3.886-6.4v-79.09c0-14.63 3.932-24.733 11.749-30.082 10.881-7.361 24.733-2.469 25.373-2.286a4.115 4.115 0 0 1 2.606 4.755z" fill="#fff"/><path d="M676.588 258.765a37.44 37.44 0 0 0 1.6-9.875v-5.44a18.978 18.978 0 0 0-2.7-4.572 32 32 0 0 0 1.463-4.572c.229-1.052.457-2.1.594-3.2a17.978 17.978 0 0 0 0-2.24 8.092 8.092 0 0 0 0-1.051 10.325 10.325 0 0 0 0-1.189 32 32 0 0 0-10.285-22.129 36.263 36.263 0 0 0-3.932-3.063 27.109 27.109 0 0 0-2.968-1.828 30.311 30.311 0 0 0-12.8-3.657 24.869 24.869 0 0 0-6.675.411 27.431 27.431 0 0 0-20.116 14.355 28.117 28.117 0 0 0-3.246 13.35 32.551 32.551 0 0 0 23.362 30.722 29.579 29.579 0 0 0 6.675 1.139 29.031 29.031 0 0 0 13.715-2.423c.549 1.006 1.28 2.1 2.057 3.292a25.793 25.793 0 0 1 2.24 4.069l.457 1.28 14.857 54.182c.549 2.24 1.051 3.977 1.92 6.721V274.08zm-2.194-13.439a10.194 10.194 0 0 1-.411 2.057c-.411 0-.914-1.1-1.509-3.337a20.248 20.248 0 0 0 1.326-2.1 22.877 22.877 0 0 0 .594 3.383z" opacity=".1"/><path d="m822.886 644.948-11.612 4.572c-8-17.19-16.23-34.288-24.322-51.387l-24.733-51.25s-10.835-19.522-11.2-20.3-1.874-8.366-4.069-18.79c-1.829-9.144-4.206-20.253-6.583-31.18-.823-3.932-1.646-7.818-2.515-11.567-.411-1.829-.777-3.566-1.189-5.258a146.291 146.291 0 0 0-6.767-25.74s26.928-.594 39.775-.411h5.029c1.189 0 1.737 0 1.737.274l2.286 11.018 1.874 8.778-.366 10.652-.594 21.167v.869l-.274 7.178v1.051l-.366 10.287-.366 8.732a17.877 17.877 0 0 0 .5 4.343 1.7 1.7 0 0 0 .229 1.051 9.736 9.736 0 0 0 .411 1.28l1.143 3.383 4.572 13.441 18.564 53.807c6.306 17.97 12.436 36.257 18.836 54z" fill="#b73721"/><path d="M710.969 529.095a22.542 22.542 0 0 0 0 2.377v1.829l.457 3.337 1.92 13.4 15.361 107.071 10.789-.732.64-108.169v-19.296s2.652-8.824 6.355-20.893c2.332-7.635 5.075-16.6 7.772-25.648 1.6-4.938 3.109-9.875 4.572-14.63 4.846-15.818 9.144-29.58 10.424-33.877l.457-1.417-51.57-12.435-3.932 37.763-1.006 9.646-2.789 26.654v30.4a41.64 41.64 0 0 0 .549 4.618z" fill="#ea4d29"/><path d="M781.557 453.477a3.7 3.7 0 0 0-.96.457h-.416l-1.829.732-1.646.549h-.594a5.717 5.717 0 0 0-1.691.411 34.534 34.534 0 0 1-4.069.64h-1.737a51.991 51.991 0 0 1-6.08.32h-3.654a25.375 25.375 0 0 1-4.892-.32l-4.023-.274-3.932-.5-4.206-.64a16.955 16.955 0 0 1-3.657-.594h-.366l-2.424-.458h-.823c-1.006-.274-2.012-.411-2.926-.64-2.1-.457-4.023-1.006-5.76-1.417a42.457 42.457 0 0 1-4.983-1.646 20.619 20.619 0 0 1-5.212-2.469 1.508 1.508 0 0 1-.686-.823.686.686 0 0 1 0-.274.912.912 0 0 0 0-.32 2.2 2.2 0 0 1 0-.823V442.5c0-3.7 0-9.144.274-15.773.274-7.5.869-16.458 1.646-25.831s1.509-18.287 2.469-27.431c0-1.28.32-2.56.411-3.886a40.937 40.937 0 0 1 .686-4.572c.869-7.5 1.966-14.264 2.972-19.75a.912.912 0 0 0 0-.32c.229-1.143.457-2.149.594-3.155a63.174 63.174 0 0 1 1.92-6.858 10.328 10.328 0 0 1 .869-1.874 9.964 9.964 0 0 1 .64-1.143 56.958 56.958 0 0 1 4.572-9.144 19.111 19.111 0 0 1 3.383-3.932 23.642 23.642 0 0 1 2.332-1.92 20.716 20.716 0 0 1 3.475-1.874 19.527 19.527 0 0 1 3.7-1.326 35.072 35.072 0 0 1 6.035-1.234h1.326a3.566 3.566 0 0 1 2.332.5 7.5 7.5 0 0 1 1.326.731 4.8 4.8 0 0 1 1.189.594 30.228 30.228 0 0 1 3.155 1.874c.869.549 1.646 1.143 2.423 1.737 17.556 13.258 16.641 35.98 14.9 58.885a272.6 272.6 0 0 0-1.235 27.431c0 6.812 4.572 35.8 5.3 45.718.054 2.113.096 3.53-.128 3.53z" fill="#b0ffc6"/><path d="M759.064 382.798c0 1.692-5.806 11.018-12.252 19.659a78.174 78.174 0 0 1-13.715 15.681c-1.463.686-3.657-.732-6.035-3.109a88.37 88.37 0 0 1-10.515-14.035q1.029-13.715 2.469-27.431a13.714 13.714 0 0 0 7.31-3.429c2.926-3.52 5.486-3.383 5.486-3.383l12.161-10.378v-7.818l7.772 14.264v.457a185.359 185.359 0 0 1 7.319 19.522z" opacity=".06"/><path d="M699.721 327.478a42.245 42.245 0 0 1-8.183-6.949 27.433 27.433 0 0 1-5.166-9.144c-1.1-3.337-1.646-5.258-2.286-7.818l-14.9-53.9-.457-1.234c-3.612-8.458-10.652-9.921 1.234-21.716 1.92-2.377 4.572-2.377 4.8-.229 1.051 6.035 1.92 8.092 2.606 8.412a12.489 12.489 0 0 1 .366-2.1l3.52-1.829v5.395a37.905 37.905 0 0 1-1.6 9.921l21.259 52.164 1.966 6.675a10.787 10.787 0 0 0 2.332 3.337 14.538 14.538 0 0 0 3.383 2.423 17.694 17.694 0 0 0 4.572 1.28l15.544 6.126c-.366 2.1-.732 0-.823 2.24a15.445 15.445 0 0 1-.274 3.566 2.744 2.744 0 0 0 0 1.737c0 5.075-.366 9.144-.366 9.144h-.869l-17.331-4.579a35.2 35.2 0 0 1-9.326-2.926z" fill="#ccc"/><path d="M726.65 335.296h-.366c.274-2.56.869-8.595 1.554-14.355-.457 7.223-.823 14.264-.823 14.264a.731.731 0 0 0-.365.091z" fill="#ccc"/><path d="M739.725 653.814a15.772 15.772 0 0 1 .732 12.207h-32.323c-1.554 0-1.691-2.56-.411-3.475 7.818-3.292 14.95-5.578 18.79-10.424 5.349 1.234 8.869 3.2 13.212 1.692z" fill="#fff"/><path d="m706.763 666.294.549 1.1h33.191l.411-1.143a1.052 1.052 0 0 0-.96-1.417h-32.277a1.006 1.006 0 0 0-.914 1.463z" fill="#24e2d3"/><path d="M822.703 643.71a15.818 15.818 0 0 1 4.3 11.475l-30.86 9.6c-1.509.457-2.377-1.966-1.417-3.2 6.492-5.44 12.664-9.692 14.9-15.5 5.442-.592 9.374.322 13.077-2.375z" fill="#fff"/><path d="m794.815 665.243.869.914 31.774-9.6v-1.189a1.051 1.051 0 0 0-1.326-1.1l-30.951 9.144a1.006 1.006 0 0 0-.366 1.829z" fill="#24e2d3"/><path d="m780.597 453.98-.366 10.652-.594 21.167v.869l-.274 7.178a4.572 4.572 0 0 1-2.926-1.6c-5.3-5.3-9.738-12.481-12.618-14.9s-11.429-3.932-14.447-9.6c-2.7-4.938-7.726-5.806-12.664-7.818l-1.783-.823a138.937 138.937 0 0 1-13.99-8.824l25.92-47.825 23.27-4.069c1.1 1.1-.823 13.715 2.377 17.373s.731 4.023.731 8.549-1.829 2.606.914 8.229c0 .457.411.869.594 1.372 1.463 3.475 2.743 7.909 4.023 11.292z" opacity=".06"/><path d="M775.522 384.9a42.934 42.934 0 0 1-3.337 10.2 22.26 22.26 0 0 1-2.1 3.429 30.354 30.354 0 0 1-4.3 4.572c-2.743 2.286-4.3 3.429-6.4 4.983l-44.392 34.106-.96.869a31.738 31.738 0 0 0-3.2 3.886c-3.475 4.938-5.12 8.458-17.419 3.155-2.926-.914-3.886-3.383-1.966-4.572 5.166-3.2 6.766-4.8 6.812-5.578a17.516 17.516 0 0 0-2.057.457c-4.572.777-5.577 0-3.017-2.56 1.326-.686 3.2-1.326 4.938-2.149a15 15 0 0 1 4.252-1.372 53.8 53.8 0 0 1 5.44-.869l40.415-39.317 5.395-4.572a10.467 10.467 0 0 0 2.24-3.292 16.047 16.047 0 0 0 .914-4.069 20.8 20.8 0 0 0-.457-4.572l-4.572-14.9a45.348 45.348 0 0 0 6.766-1.829c1.143-.274 2.286-.777 3.429-1.143h.229a2.972 2.972 0 0 0 1.463-.411l1.737-.64 1.6-.594 5.166-1.829v1.189l2.423 17.739a36.3 36.3 0 0 1 .958 9.683z" fill="#ccc"/><path d="M772.687 356.83v.64l-13.715 3.932z" fill="#ccc"/><path d="m735.565 318.792-22.036-7.223-7.955 18.516 19.48 12.481z" fill="#b0ffdf"/><path d="M770.402 398.616a56.963 56.963 0 0 1-15.772 18.653 89.653 89.653 0 0 0-16.093 14.173l-3.566 6.995-7.589 5.943-6.4 5.76c-3.52-1.189-5.715-2.423-5.943-3.337a.411.411 0 0 1 0-.229.6.6 0 0 0 0-.274 4.573 4.573 0 0 1 0-.914v-2.835l.411-.411 44.392-34.106c2.1-1.554 3.657-2.7 6.4-4.983a30.358 30.358 0 0 0 4.3-4.572 1.381 1.381 0 0 1-.14.137z" opacity=".06"/><path d="M735.108 324.598a4.848 4.848 0 0 0 1.234.594 29.082 29.082 0 0 0 4.16.823 25.054 25.054 0 0 0 11.155-1.326 36.162 36.162 0 0 0 10.058-5.578l.96-.777a8.641 8.641 0 0 1-.64-6.949 4.577 4.577 0 0 1 .32-.914 14.859 14.859 0 0 1 2.88-4.252s-2.377-1.234-5.578-2.743a3.475 3.475 0 0 1-.732-.274c-7.543-3.337-19.064-7.452-17.784-.457a28.438 28.438 0 0 1 0 10.378 25.7 25.7 0 0 1-2.24 6.675s-.366.549-.732 1.052-.457.686-.732 1.052a9.553 9.553 0 0 1-2.332 2.7z" fill="#ccc"/><path d="M782.197 293.465c-3.292 4.023-8.183 8.321-14.538 14.63-1.509.777-3.2 1.417-5.12 2.194l-1.234.366q-2.926.96-6.035 1.646a50.35 50.35 0 0 1-4.343.731 23.365 23.365 0 0 1-2.515 0 25.054 25.054 0 0 1-6.995-.366 10.838 10.838 0 0 1-2.972-1.006c-4.023-1.829-4.572-7.863-4.069-14.813.731-4.115 2.469-11.109 3.886-16.687 1.189-4.572 2.194-8.138 2.423-8.5s.549-1.417.869-2.057a13.707 13.707 0 0 0 .686-1.417 3.4 3.4 0 0 1 .549-1.326v-1.649l1.006-.32a21.623 21.623 0 0 0 4.572-2.652l2.972-.594a18.288 18.288 0 0 1 5.989-3.795c13.167-2.606 19.339 6.218 22.219 15.773a32.452 32.452 0 0 1 .914 3.475 60.665 60.665 0 0 1 1.006 5.852 5.612 5.612 0 0 0 0 .869c0 1.554.32 2.972.366 4.206a38.405 38.405 0 0 1 .364 5.44z" fill="#e6e6e6"/><path d="M798.473 347.503c-3.063 9.784-5.12 11.018-4.572 22.265s-10.789 19.659-16.6 6.629c-10.058-22.859-2.515-32.323-7.589-39.729s-8.824-11.7-10.012-16.916a26.424 26.424 0 0 1-8.275-5.029 9.143 9.143 0 0 1-.64-1.554c-1.463-5.44 4.572-17.464 8.138-22.539-14.9-4.572-15.59-15.91-15.59-15.91s-.5-.594-1.829 1.463a26.415 26.415 0 0 1-3.383 4.572 28.026 28.026 0 0 1 4.572-14.081 13.019 13.019 0 0 1 1.051-1.189 7.589 7.589 0 0 1 4.572-2.652l2.972-.594c.411 0 2.743-3.429 5.989-3.795 13.258-1.554 20.207 5.075 22.219 15.773.229 1.189.686 2.332.914 3.475.411 2.012.731 4.023 1.006 5.852a5.625 5.625 0 0 0 0 .869c0 1.554.274 2.972.366 4.206v5.166s1.417 18.287 9.738 23.682 9.97 20.298 6.953 30.036z" fill="#5b2b1d"/><path d="M685.184 213.779a27.934 27.934 0 0 1-30.083 28.162 32.414 32.414 0 0 1-30.037-32 27.888 27.888 0 0 1 30.037-28.162 32.46 32.46 0 0 1 30.083 32z" fill="#66a0a3"/><path d="M685.092 213.823a27.842 27.842 0 0 1-30.037 28.117 32.368 32.368 0 0 1-30.082-32 27.888 27.888 0 0 1 30.082-28.117 32.323 32.323 0 0 1 30.037 32z" fill="#65a0a3"/><ellipse cx="29.122" cy="30.951" fill="#64a1a4" rx="29.122" ry="30.951" transform="rotate(-45 560.745 -633.964)"/><ellipse cx="29.122" cy="30.951" fill="#63a1a4" rx="29.122" ry="30.951" transform="rotate(-45 560.689 -633.877)"/><ellipse cx="29.122" cy="30.951" fill="#62a2a4" rx="29.122" ry="30.951" transform="rotate(-45 560.744 -633.79)"/><ellipse cx="29.122" cy="30.951" fill="#61a2a5" rx="29.122" ry="30.951" transform="rotate(-45 560.712 -633.647)"/><ellipse cx="29.122" cy="30.951" fill="#60a3a5" rx="29.122" ry="30.951" transform="rotate(-45 560.712 -633.582)"/><ellipse cx="29.122" cy="30.951" fill="#5fa3a5" rx="29.122" ry="30.951" transform="rotate(-45 560.703 -633.494)"/><ellipse cx="29.122" cy="30.951" fill="#5ea4a6" rx="29.122" ry="30.951" transform="rotate(-45 560.703 -633.43)"/><ellipse cx="29.122" cy="30.951" fill="#5da4a6" rx="29.122" ry="30.951" transform="rotate(-45 560.726 -633.31)"/><ellipse cx="29.122" cy="30.951" fill="#5ca5a6" rx="29.122" ry="30.951" transform="rotate(-45 560.67 -633.223)"/><ellipse cx="29.122" cy="30.951" fill="#5ba5a7" rx="29.122" ry="30.951" transform="rotate(-45 560.725 -633.135)"/><ellipse cx="29.122" cy="30.951" fill="#5aa6a7" rx="29.122" ry="30.951" transform="rotate(-45 560.715 -633.047)"/><ellipse cx="29.122" cy="30.951" fill="#59a6a7" rx="29.122" ry="30.951" transform="rotate(-45 560.716 -632.983)"/><ellipse cx="29.122" cy="30.951" fill="#58a7a8" rx="29.122" ry="30.951" transform="rotate(-45 560.683 -632.84)"/><ellipse cx="29.122" cy="30.951" fill="#57a7a8" rx="29.122" ry="30.951" transform="rotate(-45 560.684 -632.776)"/><ellipse cx="29.122" cy="30.951" fill="#56a8a8" rx="29.122" ry="30.951" transform="rotate(-45 560.651 -632.633)"/><ellipse cx="29.122" cy="30.951" fill="#55a8a9" rx="29.122" ry="30.951" transform="rotate(-45 560.651 -632.568)"/><ellipse cx="29.122" cy="30.951" fill="#54a9a9" rx="29.122" ry="30.951" transform="rotate(-45 560.674 -632.513)"/><ellipse cx="29.122" cy="30.951" fill="#53a9aa" rx="29.122" ry="30.951" transform="rotate(-45 560.697 -632.393)"/><ellipse cx="29.122" cy="30.951" fill="#52aaaa" rx="29.122" ry="30.951" transform="rotate(-45 560.697 -632.328)"/><ellipse cx="29.122" cy="30.951" fill="#51aaaa" rx="29.122" ry="30.951" transform="rotate(-45 560.664 -632.186)"/><ellipse cx="29.122" cy="30.951" fill="#50abab" rx="29.122" ry="30.951" transform="rotate(-45 560.664 -632.12)"/><ellipse cx="29.122" cy="30.951" fill="#4fabab" rx="29.122" ry="30.951" transform="rotate(-45 560.655 -632.034)"/><ellipse cx="29.122" cy="30.951" fill="#4eabab" rx="29.122" ry="30.951" transform="rotate(-45 560.655 -631.97)"/><ellipse cx="29.122" cy="30.951" fill="#4dacac" rx="29.122" ry="30.951" transform="rotate(-45 560.6 -631.881)"/><ellipse cx="29.122" cy="30.951" fill="#4cacac" rx="29.122" ry="30.951" transform="rotate(-45 560.678 -631.739)"/><ellipse cx="29.122" cy="30.951" fill="#4badac" rx="29.122" ry="30.951" transform="rotate(-45 560.623 -631.651)"/><ellipse cx="29.122" cy="30.951" fill="#4aadad" rx="29.122" ry="30.951" transform="rotate(-45 560.669 -631.587)"/><ellipse cx="29.122" cy="30.951" fill="#49aead" rx="29.122" ry="30.951" transform="rotate(-45 560.669 -631.522)"/><ellipse cx="29.122" cy="30.951" fill="#48aead" rx="29.122" ry="30.951" transform="rotate(-45 560.637 -631.38)"/><ellipse cx="29.122" cy="30.951" fill="#47afae" rx="29.122" ry="30.951" transform="rotate(-45 560.637 -631.315)"/><ellipse cx="29.122" cy="30.951" fill="#46afae" rx="29.122" ry="30.951" transform="rotate(-45 560.58 -631.227)"/><ellipse cx="29.122" cy="30.951" fill="#45b0ae" rx="29.122" ry="30.951" transform="rotate(-45 560.659 -631.085)"/><ellipse cx="29.122" cy="30.951" fill="#45b0af" rx="29.122" ry="30.951" transform="rotate(-45 560.627 -631.053)"/><ellipse cx="29.122" cy="30.951" fill="#44b1af" rx="29.122" ry="30.951" transform="rotate(-45 560.65 -630.933)"/><ellipse cx="29.122" cy="30.951" fill="#43b1af" rx="29.122" ry="30.951" transform="rotate(-45 560.595 -630.845)"/><ellipse cx="29.122" cy="30.951" fill="#42b2b0" rx="29.122" ry="30.951" transform="rotate(-45 560.618 -630.726)"/><ellipse cx="29.122" cy="30.951" fill="#41b2b0" rx="29.122" ry="30.951" transform="rotate(-45 560.617 -630.66)"/><ellipse cx="29.122" cy="30.951" fill="#40b3b0" rx="29.122" ry="30.951" transform="rotate(-45 560.608 -630.573)"/><ellipse cx="29.122" cy="30.951" fill="#3fb3b1" rx="29.122" ry="30.951" transform="rotate(-45 560.664 -630.486)"/><ellipse cx="29.122" cy="30.951" fill="#3eb4b1" rx="29.122" ry="30.951" transform="rotate(-45 560.608 -630.399)"/><ellipse cx="29.122" cy="30.951" fill="#3db4b1" rx="29.122" ry="30.951" transform="rotate(-45 560.631 -630.277)"/><ellipse cx="29.122" cy="30.951" fill="#3cb5b2" rx="29.122" ry="30.951" transform="rotate(-45 560.575 -630.19)"/><ellipse cx="29.122" cy="30.951" fill="#3bb5b2" rx="29.122" ry="30.951" transform="rotate(-45 560.598 -630.072)"/><ellipse cx="29.122" cy="30.951" fill="#3ab5b2" rx="29.122" ry="30.951" transform="rotate(-45 560.566 -630.038)"/><ellipse cx="29.122" cy="30.951" fill="#39b6b3" rx="29.122" ry="30.951" transform="rotate(-45 560.589 -629.919)"/><ellipse cx="29.122" cy="30.951" fill="#38b6b3" rx="29.122" ry="30.951" transform="rotate(-45 560.644 -629.83)"/><ellipse cx="29.122" cy="30.951" fill="#37b7b3" rx="29.122" ry="30.951" transform="rotate(-45 560.59 -629.743)"/><ellipse cx="29.122" cy="30.951" fill="#36b7b4" rx="29.122" ry="30.951" transform="rotate(-45 560.612 -629.623)"/><ellipse cx="29.122" cy="30.951" fill="#35b8b4" rx="29.122" ry="30.951" transform="rotate(-45 560.579 -629.592)"/><ellipse cx="29.122" cy="30.951" fill="#34b8b5" rx="29.122" ry="30.951" transform="rotate(-45 560.603 -629.472)"/><ellipse cx="29.122" cy="30.951" fill="#33b9b5" rx="29.122" ry="30.951" transform="rotate(-45 560.547 -629.384)"/><ellipse cx="29.122" cy="30.951" fill="#32b9b5" rx="29.122" ry="30.951" transform="rotate(-45 560.57 -629.264)"/><ellipse cx="29.122" cy="30.951" fill="#31bab6" rx="29.122" ry="30.951" transform="rotate(-45 560.57 -629.154)"/><ellipse cx="29.122" cy="30.951" fill="#30bab6" rx="29.122" ry="30.951" transform="rotate(-45 560.593 -629.145)"/><ellipse cx="29.122" cy="30.951" fill="#2fbbb6" rx="29.122" ry="30.951" transform="rotate(-45 560.561 -629.002)"/><ellipse cx="29.122" cy="30.951" fill="#2ebbb7" rx="29.122" ry="30.951" transform="rotate(-45 560.561 -628.937)"/><ellipse cx="29.122" cy="30.951" fill="#2dbcb7" rx="29.122" ry="30.951" transform="rotate(-45 560.584 -628.818)"/><ellipse cx="29.122" cy="30.951" fill="#2cbcb7" rx="29.122" ry="30.951" transform="rotate(-45 560.529 -628.73)"/><ellipse cx="29.122" cy="30.951" fill="#2bbdb8" rx="29.122" ry="30.951" transform="rotate(-45 560.551 -628.61)"/><ellipse cx="29.122" cy="30.951" fill="#2abdb8" rx="29.122" ry="30.951" transform="rotate(-45 560.574 -628.556)"/><ellipse cx="29.122" cy="30.951" fill="#29beb8" rx="29.122" ry="30.951" transform="rotate(-45 560.574 -628.49)"/><ellipse cx="29.122" cy="30.951" fill="#28beb9" rx="29.122" ry="30.951" transform="rotate(-45 560.542 -628.348)"/><path d="M680.977 215.424a27.842 27.842 0 0 1-30.037 28.117 32.368 32.368 0 0 1-30.083-32 27.888 27.888 0 0 1 30.082-27.8 32.323 32.323 0 0 1 30.037 31.683z" fill="#27bfb9"/><path d="M680.933 215.424a27.934 27.934 0 0 1-30.082 28.162 32.414 32.414 0 0 1-30.037-32 27.888 27.888 0 0 1 30.037-27.842 32.46 32.46 0 0 1 30.082 31.68z" fill="#26bfb9"/><path d="M680.84 215.474a27.842 27.842 0 0 1-30.037 28.117 32.368 32.368 0 0 1-30.082-32 27.888 27.888 0 0 1 30.082-27.842 32.323 32.323 0 0 1 30.037 31.725z" fill="#25c0ba"/><path d="M680.794 215.47a27.888 27.888 0 0 1-30.082 28.162 32.414 32.414 0 0 1-30.037-32 27.888 27.888 0 0 1 30.037-27.888 32.414 32.414 0 0 1 30.082 31.728z" fill="#24c0ba"/><path d="M680.795 215.067a28.286 28.286 0 0 1-30.512 28.564 32.876 32.876 0 0 1-30.465-32.459 28.286 28.286 0 0 1 30.465-28.286 32.877 32.877 0 0 1 30.512 32.181z" fill="#314d4f"/><path d="M646.598 230.785a5.715 5.715 0 0 1-4.023-2.149l-9.144-12.07a4.023 4.023 0 0 1 .594-5.715 4.115 4.115 0 0 1 5.76.96l6.538 8.5 14.63-21.716a3.977 3.977 0 0 1 5.669-.869 4.16 4.16 0 0 1 1.234 5.715l-16.961 25.1a4.8 4.8 0 0 1-4.023 2.1z" fill="#f8f8ff"/><path d="M681.252 231.104s-2.743-5.989-3.749-4.572 0 6.263 0 6.263z" fill="#ccc"/><path d="M266.911 568.961a1.509 1.509 0 0 1-1.006 1.509l-26.517 10.652-49.6 19.842a1.372 1.372 0 0 1-.731 0l-134.598-8.275-30.905-2.057a1.646 1.646 0 0 1-.5-3.155l5.715-2.332L54.6 574.767l11.384-4.572 28.204-11.383 4.572-1.874a1.875 1.875 0 0 1 .731 0l94.91 5.943 42.289 2.606h.5l21.67 1.372h.96l5.258.366a1.6 1.6 0 0 1 1.829 1.737z" fill="#ffc507"/><path d="m265.904 564.663-76.12 30.535h-.64L28.628 585.19a1.1 1.1 0 0 1-1.052-1.1v-27.93a1.006 1.006 0 0 1 .731-1.006l9.149-3.656 151.829 9.509h.731l61.582-24.688 13.715.823a1.646 1.646 0 0 1 .5 3.2l-1.829 20.527-1.554.5h2.88a1.673 1.673 0 1 1 .594 3.292z" fill="#f2f2f2"/><path d="M265.401 531.198 99.674 520.911a1.234 1.234 0 0 0-.686 0L23.05 551.359a1.646 1.646 0 0 0 .5 3.2l13.715.823 151.829 9.509h.731l61.582-24.733 7.269-2.423.32 29.854 7.772 1.463v-35.889a1.646 1.646 0 0 0-1.371-1.966z" fill="#ffc507"/><path d="M167.291 559.635 1.612 549.485a1.646 1.646 0 0 1-.5-3.2l75.932-30.494h.731l165.637 10.332a1.692 1.692 0 0 1 .549 3.2l-75.983 30.448a1.831 1.831 0 0 1-.686-.137z" fill="#a3311d"/><path d="M243.412 519.996h-.549l1.1-.457a1.646 1.646 0 0 0-.549-3.154l-13.715-.869-61.677 24.825h-.731l-151.83-9.509-9.143 3.614a1.143 1.143 0 0 0-.686 1.051v7.132a1.143 1.143 0 0 0 1.052 1.143L167.2 553.784h.686l75.937-30.448a1.681 1.681 0 0 0-.412-3.337z" fill="#f2f2f2"/><path d="m229.605 519.174-61.582 24.688a2.056 2.056 0 0 1-.731 0l-151.83-9.51 61.582-24.733h.686z" fill="#aeb9ff"/><path d="M243.411 510.213 77.729 499.881a1.234 1.234 0 0 0-.686 0L1.106 530.466a1.646 1.646 0 0 0 .5 3.155l13.715.869 151.829 9.509a2.054 2.054 0 0 0 .731 0l61.582-24.688 7.269-2.926.32 9.647 7.772 1.874v-15.635a1.646 1.646 0 0 0-1.417-2.057z" fill="#a3311d"/><path d="M206.242 529.826 40.606 519.494a1.692 1.692 0 0 1-.549-3.2l75.983-30.448a1.83 1.83 0 0 1 .686 0l165.682 10.332a1.646 1.646 0 0 1 .5 3.2l-75.937 30.448a1.874 1.874 0 0 1-.729 0z" fill="#507d82"/><path d="M282.408 490.051h-.549l1.052-.411a1.646 1.646 0 0 0-.5-3.2l-6.583-8.824-22.4 10.652-136.793-8.412h-.731l-42.838 17.19-13.485-1.371-14.9-.594a79.961 79.961 0 0 0 0 10.469v7.361a1.143 1.143 0 0 0 1.006 1.1l160.516 10.012h.686l75.938-30.448a1.772 1.772 0 0 0-.411-3.52z" fill="#f2f2f2"/><path d="M282.409 473.136 116.635 462.85a1.416 1.416 0 0 0-.731 0l-75.938 30.448a1.646 1.646 0 0 0 .5 3.2l13.715.823 151.829 9.509h.732l61.582-24.733 7.269-2.88-.32 17.693 8.458.594v-22.4a1.692 1.692 0 0 0-1.326-1.966z" fill="#507d82"/><path d="m239.388 581.121-49.6 19.842a1.373 1.373 0 0 1-.731 0l-134.598-8.271v-17.83l.274-18.287v-24.463l5.9 1.554 3.566 1.006.229-.731 1.554-5.669 16.687-6.218v-22.862l12.755-6.538 10.235-2.603s9.144-2.194 10.378-4.069c3.337-5.12 20.253-5.441 21.35-5.715l30.494-14.127 17.236-.869 4.983 2.24 33.831 15.27.594 3.977.96 5.9.869 6.538 1.6 10.241.914 5.76v.686l.5 3.429.229 1.417.731 4.572.5 3.292v.686l.777 4.572 1.509 9.692.594 3.612 2.88 18.287 1.6 10.1z" opacity=".04"/><path d="M148.272 443.239a24.416 24.416 0 0 0 0 3.155 16 16 0 0 0 .549 2.88 30.311 30.311 0 0 0 15.636 19.613l1.6.777a206.277 206.277 0 0 0 38.083 13.35 84.848 84.848 0 0 0 13.075 2.012l20.897 119.64 14.813-.64-9.468-123.667a22.082 22.082 0 0 0-7.223-13.167 151.327 151.327 0 0 0-37.809-27.431 167.95 167.95 0 0 0-8.092-4.16c-10.149-5.029-20.985-9.646-32-14.173-8.321 9.693-10.153 16.002-10.061 21.811z" fill="#a3311d"/><path d="m274.454 620.118-38.083-5.256a15.27 15.27 0 0 1 1.97-14.264 16.641 16.641 0 0 0 14.63.274 52.986 52.986 0 0 0 22.448 12.207c3.652 2.56 2.422 6.126-.965 7.039z" fill="#ffc507"/><path d="M118.464 459.558c.96 11.475 4.572 20.162 15.178 24.871a183.562 183.562 0 0 0 45.718 14.767c1.829.274 3.657.5 5.44.594l3.612 20.665 17.327 98.934 14.813-.686-9.509-123.438a22.859 22.859 0 0 0-6.675-12.161 7.909 7.909 0 0 0-.777-.96 98.386 98.386 0 0 0-28.3-23.133c-2.149-1.234-4.572-2.423-6.721-3.612a207.381 207.381 0 0 0-11.567-5.486 180.283 180.283 0 0 0-8.458-3.429 260.666 260.666 0 0 0-27.431-9.144c-.32 1.006-.549 2.012-.823 2.926s0 .457 0 .686a43.614 43.614 0 0 0-1.829 18.607z" fill="#ea4d29"/><path d="m241.812 634.886-38.083-5.258a15.316 15.316 0 0 1 1.966-14.264 16.778 16.778 0 0 0 14.63.32 53.992 53.992 0 0 0 22.447 12.207c3.657 2.514 2.423 6.08-.96 6.995z" fill="#ffc507"/><path d="m179.36 331.776.823 14.173.457 6.949v2.057a15.864 15.864 0 0 0 .5 3.475 18.287 18.287 0 0 0 2.743 6.355 20.71 20.71 0 0 0 2.057 2.606l1.234 1.28 2.606 2.515 4.983 5.075 9.921 10.058 36.574 35.2 1.783 1.692 8.599-3.291-4.572-6.08-30.585-38.083-8.824-11.018-4.572-5.578-2.147-2.743-1.144-1.372-2.1-9.144-1.1-3.155-4.256-12.571-5.9.64z" fill="#ccc"/><path d="M240.851 420.835a16.321 16.321 0 0 0 19.293 8.824c5.669-1.509 6.126-7.909 1.692-8-2.972 0-9.921-3.566-6.446-4.846s-4.892-4.3-7.863-3.2-6.676 7.222-6.676 7.222z" fill="#ccc"/><path d="M45.74 95.46 51 99.072a33.141 33.141 0 0 0-5.26-3.612z" fill="url(#c)" transform="translate(119.996 181.82)"/><path d="M118.464 438.985a81.57 81.57 0 0 0 11.2 5.349c24 9.6 49.421 6.172 60.119-4.8a9.376 9.376 0 0 0 1.463-1.554 7.452 7.452 0 0 0-.366-1.006 145.426 145.426 0 0 1-8.184-27.842 60.3 60.3 0 0 1-.686-6.812c-.823-11.567 17.419-60.988 9.784-73.423-9.144-15.133-23.682-29.077-38.769-19.43a47.822 47.822 0 0 0-19.339 22.859v.5l-.914 2.606a98.338 98.338 0 0 0-4.3 24.688c-1.1 16-.5 34.151-3.657 53.947a152.793 152.793 0 0 1-6.351 24.918z" fill="#e2d750"/><path d="M118.464 459.557c.96 11.475 4.572 20.162 15.178 24.871a183.562 183.562 0 0 0 45.718 14.767c1.829.274 3.657.5 5.44.594l3.612 20.665c.457-6.218-.229-25.556-.229-25.556s-22.033-17.374-20.618-18.517-1.006-4.572-2.88-7.5c-.823-1.189 7.5-2.1 6.995-2.332-1.6-.64 2.24-7.361 3.612-7.635 7.452-1.372 12.3-10.744 15.59-12.435a47.548 47.548 0 0 0 7.543-6.721 167.95 167.95 0 0 0-8.092-4.16l.549 1.28-1.1 2.56c-6.583 6.766-18.79 10.652-32.78 10.332a59 59 0 0 1-7.909-.549 79.184 79.184 0 0 1-19.43-4.892 73.141 73.141 0 0 1-9.372-4.572l-.777-.411.594 1.1a43.615 43.615 0 0 0-1.644 19.111z" fill="#ea4d29" opacity=".04"/><path d="m161.622 296.528-2.88 11.612s9.738 11.475 16.321 11.8c2.835 0 5.12-2.972 5.76-8l-5.44-2.56z" fill="#ccc"/><path d="m52.355 179.509 63.457-11.8a1.646 1.646 0 0 0 1.234-.96l20.207-42.289a1.692 1.692 0 0 0-1.874-2.423l-63.457 11.892a1.92 1.92 0 0 0-1.234.914l-20.207 42.015a1.737 1.737 0 0 0 1.874 2.652z" fill="url(#d)" transform="translate(135.874 276.619)"/><path d="M161.671 298.036c1.554 2.972 2.56 2.652 2.56 2.652a30.86 30.86 0 0 0 6.721 12.435c.411.457.823.823 1.189 1.189l.777.777a1.782 1.782 0 0 0 .457.366h.229a7.5 7.5 0 0 0 1.143.96 11.154 11.154 0 0 0 4.206 2.149 7.681 7.681 0 0 0 4.3 0 9.144 9.144 0 0 0 3.977-2.652l.274-.274a38.5 38.5 0 0 0 5.029-8 69.4 69.4 0 0 0 5.663-18.285 18.973 18.973 0 0 0-5.715-16.276c-4.8-4.252-16.6-9.418-22.265-3.749a37.077 37.077 0 0 0-9.875 17.053 13.258 13.258 0 0 0 1.33 11.655z" fill="#e6e6e6"/><path d="M181.692 282.812a13.35 13.35 0 0 0-8.184 5.76l-.32.5a31.271 31.271 0 0 0-1.234 7.863l-2.286 2.012a35.43 35.43 0 0 1 1.326-9.509c-1.1-1.143-2.286-3.84-4.572-3.7-3.795 0-.731 11.429-2.332 14.95a2.149 2.149 0 0 1-3.886.64s-3.063-17.83-.32-27.156a15.041 15.041 0 0 1 18.288-11.567c2.012.5 4.252 0 6.4.5.823 0 0 2.057.869 1.6 13.715-8.595 22.859 8.321 14.767 18.653-4.48 5.763-9.509 3.888-18.516-.546z" fill="#2b1f1a"/><path d="M224.941 430.253c-.594 3.109 1.646 4.572 4.983 3.7a11.109 11.109 0 0 0 7.086-7.543c.549-3.109-1.692-4.572-4.983-3.7a11.11 11.11 0 0 0-7.086 7.543z" fill="#f8f8ff"/><path d="M186.447 358.617a33.512 33.512 0 0 0 12.847-11.2l-6.767-17.15-5.9.64c-.957 11.338-1.415 28.071-.18 27.71z" fill="#e2d750"/><path d="M118.464 438.984a5.8 5.8 0 0 0 1.051.549 76.629 76.629 0 0 0 10.149 4.572c24 9.6 49.421 6.172 60.119-4.8l1.1-2.56a159.468 159.468 0 0 1-6.538-19.842c-.64-2.606-1.234-5.3-1.646-7.955a28.894 28.894 0 0 1-8.458-3.52c0-1.143-5.9-18.882-5.9-18.882s-8.641-5.12-8.778-11.429a53.033 53.033 0 0 0-6.355-17.373s-21.167 1.829-24.779 2.286c-1.1 16-.5 34.151-3.657 53.947-.457 2.743-.96 5.486-1.554 8.275a134.781 134.781 0 0 1-4.252 15.91z" opacity=".06"/><path d="M180.64 438.436a16.367 16.367 0 0 0 17.967 11.292c5.806-.732 7.132-6.995 2.743-7.681-2.926-.457-9.144-4.846-5.76-5.669s-4.252-4.937-7.361-4.206-7.589 6.264-7.589 6.264z" fill="#e6e6e6"/><path d="m188.229 432.173-7.589 6.263-16.824-16-29.445-28.072-2.1-2.835-1.052-1.417a19.019 19.019 0 0 1-1.646-2.88 19.75 19.75 0 0 1-1.783-6.721 15.316 15.316 0 0 1 0-3.52v-2.057l.686-7.086 1.326-14.173a35.386 35.386 0 0 0 22.859 4.069l-3.52 13.715-1.783 6.812V379.78l.913 1.554 1.737 3.017z" fill="#e6e6e6"/><ellipse cx="6.126" cy="6.629" fill="#f8f8ff" rx="6.126" ry="6.629" transform="rotate(-34.75 538.045 -109.715)"/><path d="M170.491 289.304a2.972 2.972 0 0 1-3.2 3.063 3.52 3.52 0 0 1-3.2-3.52 2.972 2.972 0 0 1 3.2-3.017 3.52 3.52 0 0 1 3.2 3.475z" fill="#ea4d29"/><path d="M167.291 290.95a1.874 1.874 0 0 1-1.874-1.692c-.686-9.144 2.332-26.471 18.927-27.979a1.92 1.92 0 0 1 2.012 1.692 1.829 1.829 0 0 1-1.646 2.012c-17.19 1.554-15.681 22.859-15.59 23.956a1.874 1.874 0 0 1-1.692 2.012z" fill="#ea4d29"/><g fill="none" stroke-width="10"><path d="m525.308 383.254 73.012 10.789" stroke="#f2f2f2" stroke-linecap="round" stroke-linejoin="round"/><path d="M537.789 405.244s.274 50.29 57.7 68.028" stroke="#aeb9ff" stroke-linecap="round" stroke-miterlimit="10"/><path d="M573.312 412.696a85.95 85.95 0 0 1-49.01 50.975" stroke="#aeb9ff" stroke-linecap="round" stroke-miterlimit="10"/><path d="M552.557 371.065a17.693 17.693 0 0 1 7.635 15.27" stroke="#f2f2f2" stroke-miterlimit="10"/></g></svg>